<svg id="kity_svg_6" xmlns="http://www.w3.org/2000/svg" xmlns:xlink="http://www.w3.org/1999/xlink" version="1.1" width="730" height="377" style="background: rgb(251, 251, 251); visibility: visible;" viewBox="0 0 730 377"><defs id="kity_defs_7"><linearGradient id="kity_linearGradient_17" x1="0" y1="0" x2="0" y2="1"><stop id="kity_stop_18" offset="0" stop-color="rgb(255, 255, 255)"></stop><stop id="kity_stop_19" offset="1" stop-color="rgb(204, 204, 204)"></stop></linearGradient><marker id="kity_marker_2" orient="auto" refX="6" refY="0" viewBox="-7 -7 14 14" markerWidth="7" markerHeight="7" markerUnits="userSpaceOnUse"><path id="kity_path_3" fill="rgb(115, 191, 118)" stroke="none" d="M6,0A6,6,0,1,1,-6,0A6,6,0,1,1,6,0"></path></marker></defs><g id="kity_g_8"><g id="minder1" text-rendering="optimize-speed"><g id="minder_connect_group1"><path id="kity_path_31" fill="none" stroke="rgb(115, 191, 118)" stroke-width="1" d="M65,193.5A60.5,106,0,0,1,125.5,87.5"></path><path id="kity_path_39" fill="none" stroke="rgb(115, 191, 118)" stroke-width="1" d="M65,193.5A60.5,106,0,0,0,125.5,299.5"></path><path id="kity_path_50" fill="none" stroke="rgb(115, 191, 118)" stroke-width="1" d="M231.5,87.5C239.5,87.5,239.5,55.5,247.5,55.5"></path><path id="kity_path_58" fill="none" stroke="rgb(115, 191, 118)" stroke-width="1" d="M231.5,87.5C239.5,87.5,239.5,120.5,247.5,120.5"></path><path id="kity_path_82" fill="none" stroke="rgb(115, 191, 118)" stroke-width="1" d="M239.5,299.5C247.5,299.5,247.5,250.5,255.5,250.5"></path><path id="kity_path_90" fill="none" stroke="rgb(115, 191, 118)" stroke-width="1" d="M239.5,299.5C247.5,299.5,247.5,348.5,255.5,348.5"></path><path id="kity_path_98" fill="none" stroke="rgb(115, 191, 118)" stroke-width="1" d="M295.5,55.5C303.5,55.5,303.5,29.5,311.5,29.5"></path><path id="kity_path_106" fill="none" stroke="rgb(115, 191, 118)" stroke-width="1" d="M295.5,55.5C303.5,55.5,303.5,55.5,311.5,55.5"></path><path id="kity_path_114" fill="none" stroke="rgb(115, 191, 118)" stroke-width="1" d="M295.5,55.5C303.5,55.5,303.5,81.5,311.5,81.5"></path><path id="kity_path_122" fill="none" stroke="rgb(115, 191, 118)" stroke-width="1" d="M307.5,120.5C315.5,120.5,315.5,107.5,323.5,107.5"></path><path id="kity_path_130" fill="none" stroke="rgb(115, 191, 118)" stroke-width="1" d="M307.5,120.5C315.5,120.5,315.5,133.5,323.5,133.5"></path><path id="kity_path_138" fill="none" stroke="rgb(115, 191, 118)" stroke-width="1" d="M315.5,250.5C323.5,250.5,323.5,179.5,331.5,179.5"></path><path id="kity_path_146" fill="none" stroke="rgb(115, 191, 118)" stroke-width="1" d="M315.5,250.5C323.5,250.5,323.5,218.5,331.5,218.5"></path><path id="kity_path_154" fill="none" stroke="rgb(115, 191, 118)" stroke-width="1" d="M315.5,250.5C323.5,250.5,323.5,244.5,331.5,244.5"></path><path id="kity_path_162" fill="none" stroke="rgb(115, 191, 118)" stroke-width="1" d="M315.5,250.5C323.5,250.5,323.5,270.5,331.5,270.5"></path><path id="kity_path_170" fill="none" stroke="rgb(115, 191, 118)" stroke-width="1" d="M315.5,250.5C323.5,250.5,323.5,296.5,331.5,296.5"></path><path id="kity_path_178" fill="none" stroke="rgb(115, 191, 118)" stroke-width="1" d="M315.5,250.5C323.5,250.5,323.5,322.5,331.5,322.5"></path><path id="kity_path_186" fill="none" stroke="rgb(115, 191, 118)" stroke-width="1" d="M315.5,348.5C323.5,348.5,323.5,348.5,331.5,348.5"></path><path id="kity_path_194" fill="none" stroke="rgb(115, 191, 118)" stroke-width="1" d="M414.5,179.5C422.5,179.5,422.5,166.5,430.5,166.5"></path><path id="kity_path_202" fill="none" stroke="rgb(115, 191, 118)" stroke-width="1" d="M414.5,179.5C422.5,179.5,422.5,192.5,430.5,192.5"></path></g><g id="minder_node1"><path id="kity_path_48" fill="rgba(0, 0, 0, .25)" stroke="none" d="M31.5,181.5h106a5,5,0,0,1,5,5v24a5,5,0,0,1,-5,5h-106a5,5,0,0,1,-5,-5v-24a5,5,0,0,1,5,-5z" display="none"></path><path id="node_outline1" fill="rgb(115, 191, 118)" stroke="rgb(115, 191, 118)" d="M25.5,179.5h79a5,5,0,0,1,5,5v18a5,5,0,0,1,-5,5h-79a5,5,0,0,1,-5,-5v-18a5,5,0,0,1,5,-5z" stroke-width="3"></path><g id="node_text1" fill="white"><text id="kity_text_22" text-rendering="inherit" font-size="16" dy=".8em" y="183.09999990463257" x="32.5">前端缓存</text></g></g><g id="kity_g_12"><path id="kity_path_13" fill="none" stroke="none" d="M32.5,193.5h0v0h0z"></path></g><g id="kity_g_14"><path id="kity_path_15" fill="none" stroke="none" d="M32.5,193.5h0v0h0z"></path><path id="kity_path_16" fill="none" stroke="none"></path></g><g id="minder_node2"><path id="kity_path_46" fill="rgba(0, 0, 0, .25)" stroke="none" d="M146.5,80.5h84a5,5,0,0,1,5,5v14a5,5,0,0,1,-5,5h-84a5,5,0,0,1,-5,-5v-14a5,5,0,0,1,5,-5z" display="none"></path><g id="node_expander1" style="cursor: pointer;"><path id="kity_path_36" fill="white" stroke="gray" d="M126.5,87.5A6,6,0,1,1,114.5,87.5A6,6,0,1,1,126.5,87.5"></path><path id="kity_path_37" fill="none" stroke="gray" d="M116,87.5L125,87.5"></path></g><path id="node_outline2" fill="rgb(238, 246, 238)" stroke="rgb(115, 191, 118)" d="M130.5,74.5h98a3,3,0,0,1,3,3v20a3,3,0,0,1,-3,3h-98a3,3,0,0,1,-3,-3v-20a3,3,0,0,1,3,-3z" stroke-width="1"></path><g id="node_text2" fill="black"><text id="kity_text_33" text-rendering="inherit" font-size="14" dy=".8em" y="78.40000009536743" x="147.5">HTTP缓存</text></g></g><g id="minder_node3"><path id="kity_path_47" fill="rgba(0, 0, 0, .25)" stroke="none" d="M146.5,292.5h92a5,5,0,0,1,5,5v14a5,5,0,0,1,-5,5h-92a5,5,0,0,1,-5,-5v-14a5,5,0,0,1,5,-5z" display="none"></path><g id="node_expander2" style="cursor: pointer;"><path id="kity_path_44" fill="white" stroke="gray" d="M126.5,299.5A6,6,0,1,1,114.5,299.5A6,6,0,1,1,126.5,299.5"></path><path id="kity_path_45" fill="none" stroke="gray" d="M116,299.5L125,299.5"></path></g><path id="node_outline3" fill="rgb(238, 246, 238)" stroke="rgb(115, 191, 118)" d="M130.5,286.5h106a3,3,0,0,1,3,3v20a3,3,0,0,1,-3,3h-106a3,3,0,0,1,-3,-3v-20a3,3,0,0,1,3,-3z" stroke-width="1"></path><g id="node_text3" fill="black"><text id="kity_text_41" text-rendering="inherit" font-size="14" dy=".8em" y="290.40000009536743" x="147.5">浏览器缓存</text></g></g><g id="minder_node4"><g id="node_expander3" style="cursor: pointer;"><path id="kity_path_55" fill="white" stroke="gray" d="M247.5,55.5A6,6,0,1,1,235.5,55.5A6,6,0,1,1,247.5,55.5"></path><path id="kity_path_56" fill="none" stroke="gray" d="M237,55.5L246,55.5"></path></g><path id="node_outline4" fill="none" stroke="none" d="M252.5,46.5h38a5,5,0,0,1,5,5v8a5,5,0,0,1,-5,5h-38a5,5,0,0,1,-5,-5v-8a5,5,0,0,1,5,-5z" stroke-width="3"></path><g id="node_text4" fill="black"><text id="kity_text_52" text-rendering="inherit" font-size="12" dy=".8em" y="47.700000047683716" x="252.5">强缓存</text></g></g><g id="minder_node5"><g id="node_expander4" style="cursor: pointer;"><path id="kity_path_63" fill="white" stroke="gray" d="M247.5,120.5A6,6,0,1,1,235.5,120.5A6,6,0,1,1,247.5,120.5"></path><path id="kity_path_64" fill="none" stroke="gray" d="M237,120.5L246,120.5"></path></g><path id="node_outline5" fill="none" stroke="none" d="M252.5,111.5h50a5,5,0,0,1,5,5v8a5,5,0,0,1,-5,5h-50a5,5,0,0,1,-5,-5v-8a5,5,0,0,1,5,-5z" stroke-width="3"></path><g id="node_text5" fill="black"><text id="kity_text_60" text-rendering="inherit" font-size="12" dy=".8em" y="112.70000004768372" x="252.5">协商缓存</text></g></g><g id="minder_node8"><g id="node_expander7" style="cursor: pointer;"><path id="kity_path_87" fill="white" stroke="gray" d="M255.5,250.5A6,6,0,1,1,243.5,250.5A6,6,0,1,1,255.5,250.5"></path><path id="kity_path_88" fill="none" stroke="gray" d="M245,250.5L254,250.5"></path></g><path id="node_outline8" fill="none" stroke="none" d="M260.5,241.5h50a5,5,0,0,1,5,5v8a5,5,0,0,1,-5,5h-50a5,5,0,0,1,-5,-5v-8a5,5,0,0,1,5,-5z" stroke-width="3"></path><g id="node_text8" fill="black"><text id="kity_text_84" text-rendering="inherit" font-size="12" dy=".8em" y="242.70000004768372" x="260.5">本地存储</text></g></g><g id="minder_node9"><g id="node_expander8" style="cursor: pointer;"><path id="kity_path_95" fill="white" stroke="gray" d="M255.5,348.5A6,6,0,1,1,243.5,348.5A6,6,0,1,1,255.5,348.5"></path><path id="kity_path_96" fill="none" stroke="gray" d="M245,348.5L254,348.5"></path></g><path id="node_outline9" fill="none" stroke="none" d="M260.5,339.5h50a5,5,0,0,1,5,5v8a5,5,0,0,1,-5,5h-50a5,5,0,0,1,-5,-5v-8a5,5,0,0,1,5,-5z" stroke-width="3"></path><g id="node_text9" fill="black"><text id="kity_text_92" text-rendering="inherit" font-size="12" dy=".8em" y="340.7000000476837" x="260.5">默认缓存</text></g></g><g id="minder_node10"><g id="node_expander9" style="cursor: pointer;" display="none"><path id="kity_path_103" fill="white" stroke="gray" d="M311.5,29.5A6,6,0,1,1,299.5,29.5A6,6,0,1,1,311.5,29.5"></path><path id="kity_path_104" fill="none" stroke="gray"></path></g><path id="node_outline10" fill="none" stroke="none" d="M316.5,20.5h104a5,5,0,0,1,5,5v8a5,5,0,0,1,-5,5h-104a5,5,0,0,1,-5,-5v-8a5,5,0,0,1,5,-5z" stroke-width="3"></path><g id="node_text10" fill="black"><text id="kity_text_100" text-rendering="inherit" font-size="12" dy=".8em" y="21.700000047683716" x="316.5">Pragma（已废除）</text></g></g><g id="minder_node11"><g id="node_expander10" style="cursor: pointer;" display="none"><path id="kity_path_111" fill="white" stroke="gray" d="M311.5,55.5A6,6,0,1,1,299.5,55.5A6,6,0,1,1,311.5,55.5"></path><path id="kity_path_112" fill="none" stroke="gray"></path></g><path id="node_outline11" fill="none" stroke="none" d="M316.5,46.5h83a5,5,0,0,1,5,5v8a5,5,0,0,1,-5,5h-83a5,5,0,0,1,-5,-5v-8a5,5,0,0,1,5,-5z" stroke-width="3"></path><g id="node_text11" fill="black"><text id="kity_text_108" text-rendering="inherit" font-size="12" dy=".8em" y="47.700000047683716" x="316.5">Cache-Control</text></g></g><g id="minder_node12"><g id="node_expander11" style="cursor: pointer;" display="none"><path id="kity_path_119" fill="white" stroke="gray" d="M311.5,81.5A6,6,0,1,1,299.5,81.5A6,6,0,1,1,311.5,81.5"></path><path id="kity_path_120" fill="none" stroke="gray"></path></g><path id="node_outline12" fill="none" stroke="none" d="M316.5,72.5h41a5,5,0,0,1,5,5v8a5,5,0,0,1,-5,5h-41a5,5,0,0,1,-5,-5v-8a5,5,0,0,1,5,-5z" stroke-width="3"></path><g id="node_text12" fill="black"><text id="kity_text_116" text-rendering="inherit" font-size="12" dy=".8em" y="73.70000004768372" x="316.5">Expires</text></g></g><g id="minder_node13"><g id="node_expander12" style="cursor: pointer;" display="none"><path id="kity_path_127" fill="white" stroke="gray" d="M323.5,107.5A6,6,0,1,1,311.5,107.5A6,6,0,1,1,323.5,107.5"></path><path id="kity_path_128" fill="none" stroke="gray"></path></g><path id="node_outline13" fill="none" stroke="none" d="M328.5,98.5h119a5,5,0,0,1,5,5v8a5,5,0,0,1,-5,5h-119a5,5,0,0,1,-5,-5v-8a5,5,0,0,1,5,-5z" stroke-width="3"></path><g id="node_text13" fill="black"><text id="kity_text_124" text-rendering="inherit" font-size="12" dy=".8em" y="99.70000004768372" x="328.5">ETag/If-None-Match</text></g></g><g id="minder_node14"><g id="node_expander13" style="cursor: pointer;" display="none"><path id="kity_path_135" fill="white" stroke="gray" d="M323.5,133.5A6,6,0,1,1,311.5,133.5A6,6,0,1,1,323.5,133.5"></path><path id="kity_path_136" fill="none" stroke="gray"></path></g><path id="node_outline14" fill="none" stroke="none" d="M328.5,124.5h186a5,5,0,0,1,5,5v8a5,5,0,0,1,-5,5h-186a5,5,0,0,1,-5,-5v-8a5,5,0,0,1,5,-5z" stroke-width="3"></path><g id="node_text14" fill="black"><text id="kity_text_132" text-rendering="inherit" font-size="12" dy=".8em" y="125.70000004768372" x="328.5">Last-Modified/If-Modified-Since</text></g></g><g id="minder_node15"><g id="node_expander14" style="cursor: pointer;"><path id="kity_path_143" fill="white" stroke="gray" d="M331.5,179.5A6,6,0,1,1,319.5,179.5A6,6,0,1,1,331.5,179.5"></path><path id="kity_path_144" fill="none" stroke="gray" d="M321,179.5L330,179.5"></path></g><path id="node_outline15" fill="none" stroke="none" d="M336.5,170.5h73a5,5,0,0,1,5,5v8a5,5,0,0,1,-5,5h-73a5,5,0,0,1,-5,-5v-8a5,5,0,0,1,5,-5z" stroke-width="3"></path><g id="node_text15" fill="black"><text id="kity_text_140" text-rendering="inherit" font-size="12" dy=".8em" y="171.70000004768372" x="336.5">WebStorage</text></g></g><g id="minder_node16"><g id="node_expander15" style="cursor: pointer;" display="none"><path id="kity_path_151" fill="white" stroke="gray" d="M331.5,218.5A6,6,0,1,1,319.5,218.5A6,6,0,1,1,331.5,218.5"></path><path id="kity_path_152" fill="none" stroke="gray"></path></g><path id="node_outline16" fill="none" stroke="none" d="M336.5,209.5h40a5,5,0,0,1,5,5v8a5,5,0,0,1,-5,5h-40a5,5,0,0,1,-5,-5v-8a5,5,0,0,1,5,-5z" stroke-width="3"></path><g id="node_text16" fill="black"><text id="kity_text_148" text-rendering="inherit" font-size="12" dy=".8em" y="210.70000004768372" x="336.5">Cookie</text></g></g><g id="minder_node17"><g id="node_expander16" style="cursor: pointer;" display="none"><path id="kity_path_159" fill="white" stroke="gray" d="M331.5,244.5A6,6,0,1,1,319.5,244.5A6,6,0,1,1,331.5,244.5"></path><path id="kity_path_160" fill="none" stroke="gray"></path></g><path id="node_outline17" fill="none" stroke="none" d="M336.5,235.5h157a5,5,0,0,1,5,5v8a5,5,0,0,1,-5,5h-157a5,5,0,0,1,-5,-5v-8a5,5,0,0,1,5,-5z" stroke-width="3"></path><g id="node_text17" fill="black"><text id="kity_text_156" text-rendering="inherit" font-size="12" dy=".8em" y="236.70000004768372" x="336.5">WebSql（W3C标准已废除）</text></g></g><g id="minder_node18"><g id="node_expander17" style="cursor: pointer;" display="none"><path id="kity_path_167" fill="white" stroke="gray" d="M331.5,270.5A6,6,0,1,1,319.5,270.5A6,6,0,1,1,331.5,270.5"></path><path id="kity_path_168" fill="none" stroke="gray"></path></g><path id="node_outline18" fill="none" stroke="none" d="M336.5,261.5h49a5,5,0,0,1,5,5v8a5,5,0,0,1,-5,5h-49a5,5,0,0,1,-5,-5v-8a5,5,0,0,1,5,-5z" stroke-width="3"></path><g id="node_text18" fill="black"><text id="kity_text_164" text-rendering="inherit" font-size="12" dy=".8em" y="262.7000000476837" x="336.5">IndexDB</text></g></g><g id="minder_node19"><g id="node_expander18" style="cursor: pointer;" display="none"><path id="kity_path_175" fill="white" stroke="gray" d="M331.5,296.5A6,6,0,1,1,319.5,296.5A6,6,0,1,1,331.5,296.5"></path><path id="kity_path_176" fill="none" stroke="gray"></path></g><path id="node_outline19" fill="none" stroke="none" d="M336.5,287.5h369a5,5,0,0,1,5,5v8a5,5,0,0,1,-5,5h-369a5,5,0,0,1,-5,-5v-8a5,5,0,0,1,5,-5z" stroke-width="3"></path><g id="node_text19" fill="black"><text id="kity_text_172" text-rendering="inherit" font-size="12" dy=".8em" y="288.7000000476837" x="336.5">应用缓存Application Cache（适用于常年不变的静态网站，已废除）</text></g></g><g id="minder_node20"><g id="node_expander19" style="cursor: pointer;" display="none"><path id="kity_path_183" fill="white" stroke="gray" d="M331.5,322.5A6,6,0,1,1,319.5,322.5A6,6,0,1,1,331.5,322.5"></path><path id="kity_path_184" fill="none" stroke="gray"></path></g><path id="node_outline20" fill="none" stroke="none" d="M336.5,313.5h29a5,5,0,0,1,5,5v8a5,5,0,0,1,-5,5h-29a5,5,0,0,1,-5,-5v-8a5,5,0,0,1,5,-5z" stroke-width="3"></path><g id="node_text20" fill="black"><text id="kity_text_180" text-rendering="inherit" font-size="12" dy=".8em" y="314.7000000476837" x="336.5">PWA</text></g></g><g id="minder_node21"><g id="node_expander20" style="cursor: pointer;" display="none"><path id="kity_path_191" fill="white" stroke="gray" d="M331.5,348.5A6,6,0,1,1,319.5,348.5A6,6,0,1,1,331.5,348.5"></path><path id="kity_path_192" fill="none" stroke="gray"></path></g><path id="node_outline21" fill="none" stroke="none" d="M336.5,339.5h102a5,5,0,0,1,5,5v8a5,5,0,0,1,-5,5h-102a5,5,0,0,1,-5,-5v-8a5,5,0,0,1,5,-5z" stroke-width="3"></path><g id="node_text21" fill="black"><text id="kity_text_188" text-rendering="inherit" font-size="12" dy=".8em" y="340.7000000476837" x="336.5">往返缓存BF Cache</text></g></g><g id="minder_node22"><g id="node_expander21" style="cursor: pointer;" display="none"><path id="kity_path_199" fill="white" stroke="gray" d="M430.5,166.5A6,6,0,1,1,418.5,166.5A6,6,0,1,1,430.5,166.5"></path><path id="kity_path_200" fill="none" stroke="gray"></path></g><path id="node_outline22" fill="none" stroke="none" d="M435.5,157.5h72a5,5,0,0,1,5,5v8a5,5,0,0,1,-5,5h-72a5,5,0,0,1,-5,-5v-8a5,5,0,0,1,5,-5z" stroke-width="3"></path><g id="node_text22" fill="black"><text id="kity_text_196" text-rendering="inherit" font-size="12" dy=".8em" y="158.70000004768372" x="435.5">localStorage</text></g></g><g id="minder_node23"><g id="node_expander22" style="cursor: pointer;" display="none"><path id="kity_path_207" fill="white" stroke="gray" d="M430.5,192.5A6,6,0,1,1,418.5,192.5A6,6,0,1,1,430.5,192.5"></path><path id="kity_path_208" fill="none" stroke="gray"></path></g><path id="node_outline23" fill="none" stroke="none" d="M435.5,183.5h87a5,5,0,0,1,5,5v8a5,5,0,0,1,-5,5h-87a5,5,0,0,1,-5,-5v-8a5,5,0,0,1,5,-5z" stroke-width="3"></path><g id="node_text23" fill="black"><text id="kity_text_204" text-rendering="inherit" font-size="12" dy=".8em" y="184.70000004768372" x="435.5">sessionStorage</text></g></g></g></g></svg>